<svg version="1.1" xmlns="http://www.w3.org/2000/svg" xmlns:xlink="http://www.w3.org/1999/xlink" width="50px" height="50px" viewBox="0,0,256,256"><g fill="#ffffff" fill-rule="nonzero" stroke="none" stroke-width="1" stroke-linecap="butt" stroke-linejoin="miter" stroke-miterlimit="10" stroke-dasharray="" stroke-dashoffset="0" font-family="none" font-weight="none" font-size="none" text-anchor="none" style="mix-blend-mode: normal"><g transform="scale(5.12,5.12)"><path d="M25,2c-12.68359,0 -23,10.31641 -23,23c0,12.68359 10.31641,23 23,23c12.68359,0 23,-10.31641 23,-23c0,-12.68359 -10.31641,-23 -23,-23zM32.70703,25.70703l-10,10c-0.19531,0.19531 -0.44922,0.29297 -0.70703,0.29297c-0.25781,0 -0.51172,-0.09766 -0.70703,-0.29297c-0.39062,-0.39062 -0.39062,-1.02344 0,-1.41406l9.29297,-9.29297l-9.29297,-9.29297c-0.39062,-0.39062 -0.39062,-1.02344 0,-1.41406c0.39063,-0.39062 1.02344,-0.39062 1.41406,0l10,10c0.39063,0.39063 0.39063,1.02344 0,1.41406z"></path></g></g></svg>