<svg width="200" height="200" viewBox="0 0 200 200" fill="none" xmlns="http://www.w3.org/2000/svg">
<circle cx="100" cy="100" r="100" fill="white"/>
<path d="M99.5248 72.041C83.772 72.041 71.0658 84.7472 71.0658 100.5C71.0658 116.253 83.772 128.959 99.5248 128.959C115.278 128.959 127.984 116.253 127.984 100.5C127.984 84.7472 115.278 72.041 99.5248 72.041ZM99.5248 119.002C89.3449 119.002 81.0227 110.705 81.0227 100.5C81.0227 90.2954 89.3201 81.9979 99.5248 81.9979C109.729 81.9979 118.027 90.2954 118.027 100.5C118.027 110.705 109.705 119.002 99.5248 119.002V119.002ZM135.786 70.8769C135.786 74.5674 132.814 77.5148 129.148 77.5148C125.457 77.5148 122.51 74.5426 122.51 70.8769C122.51 67.2111 125.482 64.2389 129.148 64.2389C132.814 64.2389 135.786 67.2111 135.786 70.8769ZM154.635 77.6139C154.214 68.722 152.183 60.8456 145.668 54.3563C139.179 47.867 131.303 45.8359 122.411 45.3901C113.247 44.87 85.7783 44.87 76.6139 45.3901C67.7468 45.8112 59.8704 47.8422 53.3563 54.3315C46.8422 60.8209 44.8359 68.6973 44.3901 77.5891C43.87 86.7535 43.87 114.222 44.3901 123.386C44.8112 132.278 46.8422 140.154 53.3563 146.644C59.8704 153.133 67.722 155.164 76.6139 155.61C85.7783 156.13 113.247 156.13 122.411 155.61C131.303 155.189 139.179 153.158 145.668 146.644C152.158 140.154 154.189 132.278 154.635 123.386C155.155 114.222 155.155 86.7783 154.635 77.6139V77.6139ZM142.795 133.219C140.863 138.074 137.123 141.814 132.244 143.771C124.937 146.668 107.599 146 99.5248 146C91.4502 146 74.0875 146.644 66.8056 143.771C61.951 141.839 58.2109 138.099 56.2542 133.219C53.3563 125.912 54.025 108.575 54.025 100.5C54.025 92.4255 53.3811 75.0628 56.2542 67.7808C58.1862 62.9262 61.9262 59.1862 66.8056 57.2294C74.1123 54.3315 91.4502 55.0003 99.5248 55.0003C107.599 55.0003 124.962 54.3563 132.244 57.2294C137.099 59.1614 140.839 62.9014 142.795 67.7808C145.693 75.0875 145.024 92.4255 145.024 100.5C145.024 108.575 145.693 125.937 142.795 133.219Z" fill="black"/>
</svg>
