<svg width="200" height="200" viewBox="0 0 200 200" fill="none" xmlns="http://www.w3.org/2000/svg">
<circle cx="100" cy="100" r="100" fill="white"/>
<path d="M142.857 50H57.1205C53.192 50 50 53.2366 50 57.2098V142.79C50 146.763 53.192 150 57.1205 150H142.857C146.786 150 150 146.763 150 142.79V57.2098C150 53.2366 146.786 50 142.857 50ZM80.2232 135.714H65.4018V87.9911H80.2455V135.714H80.2232ZM72.8125 81.4732C68.058 81.4732 64.2188 77.6116 64.2188 72.8795C64.2188 68.1473 68.058 64.2857 72.8125 64.2857C77.5446 64.2857 81.4062 68.1473 81.4062 72.8795C81.4062 77.6339 77.567 81.4732 72.8125 81.4732V81.4732ZM135.781 135.714H120.96V112.5C120.96 106.964 120.848 99.8438 113.259 99.8438C105.536 99.8438 104.353 105.871 104.353 112.098V135.714H89.5312V87.9911H103.75V94.5089H103.951C105.938 90.7589 110.781 86.808 117.991 86.808C132.991 86.808 135.781 96.6964 135.781 109.554V135.714V135.714Z" fill="black"/>
</svg>
