<svg width="200" height="200" viewBox="0 0 200 200" fill="none" xmlns="http://www.w3.org/2000/svg">
<circle cx="100" cy="100" r="100" fill="white"/>
<path d="M153.66 73.3217C152.372 68.4716 148.576 64.6518 143.758 63.3555C135.023 61 100 61 100 61C100 61 64.9768 61 56.2423 63.3555C51.4236 64.652 47.6284 68.4716 46.3403 73.3217C44 82.1128 44 100.455 44 100.455C44 100.455 44 118.796 46.3403 127.587C47.6284 132.437 51.4236 136.098 56.2423 137.394C64.9768 139.75 100 139.75 100 139.75C100 139.75 135.023 139.75 143.758 137.394C148.576 136.098 152.372 132.437 153.66 127.587C156 118.796 156 100.455 156 100.455C156 100.455 156 82.1128 153.66 73.3217V73.3217ZM88.5454 117.107V83.8016L117.818 100.455L88.5454 117.107V117.107Z" fill="black"/>
</svg>
